<svg xmlns="http://www.w3.org/2000/svg" width="40" height="40" viewBox="0 0 40 40">
    <g fill="none" fill-rule="evenodd">
        <path fill="#F8B216" d="M12.307 0h15.386c4.28 0 5.831.446 7.396 1.282a8.723 8.723 0 0 1 3.629 3.63C39.554 6.475 40 8.026 40 12.306v15.386c0 4.28-.446 5.831-1.282 7.396a8.723 8.723 0 0 1-3.63 3.629C33.525 39.554 31.974 40 27.694 40H12.307c-4.28 0-5.831-.446-7.396-1.282a8.723 8.723 0 0 1-3.629-3.63C.446 33.525 0 31.974 0 27.694V12.307c0-4.28.446-5.831 1.282-7.396a8.723 8.723 0 0 1 3.63-3.629C6.475.446 8.026 0 12.306 0z"/>
        <path fill="#000" d="M11.531 11.531l7.338 7.338a1.6 1.6 0 0 0 2.262 0l7.338-7.338a1.6 1.6 0 0 1 2.731 1.132V29.6a1.6 1.6 0 0 1-1.6 1.6H10.4a1.6 1.6 0 0 1-1.6-1.6V12.663a1.6 1.6 0 0 1 2.731-1.132z"/>
    </g>
</svg>
