<svg xmlns="http://www.w3.org/2000/svg" xmlns:xlink="http://www.w3.org/1999/xlink" width="16" height="16" viewBox="0 0 16 16">
    <defs>
        <path id="a" d="M13.333 4h-.666v5.333c0 .367-.3.667-.667.667H4v.667C4 11.4 4.6 12 5.333 12H12l2.667 2.667V5.333c0-.733-.6-1.333-1.334-1.333zm-2 3.333V2.667c0-.734-.6-1.334-1.333-1.334H2.667c-.734 0-1.334.6-1.334 1.334v8.666L4 8.667h6c.733 0 1.333-.6 1.333-1.334z"/>
    </defs>
    <g fill="none" fill-rule="evenodd">
        <path d="M0 0h16v16H0z"/>
        <use fill="#F3F3F4" fill-opacity=".75" xlink:href="#a"/>
    </g>
</svg>
