<svg xmlns="http://www.w3.org/2000/svg" width="137" height="40" viewBox="0 0 137 40">
    <g fill="none" fill-rule="evenodd">
        <path fill="#F3F3F4" fill-rule="nonzero" d="M63.571 29.734l-.053-8.484-4.03 6.809h-2.757l-4.03-6.516v8.191H47V11.117h5.144l6.045 9.92 5.886-9.92h5.144l.053 18.617h-5.7zM78.415 14.92c2.546 0 4.49.572 5.833 1.716 1.344 1.143 2.015 2.903 2.015 5.279v7.819h-5.567v-1.915c-.69 1.454-2.06 2.181-4.11 2.181-1.15 0-2.126-.2-2.93-.598-.804-.4-1.414-.94-1.83-1.623-.415-.682-.622-1.45-.622-2.3 0-1.436.547-2.527 1.643-3.272 1.096-.744 2.758-1.117 4.985-1.117h2.413c-.195-1.134-1.105-1.702-2.731-1.702a6.82 6.82 0 0 0-1.989.306c-.671.204-1.246.483-1.723.838l-1.91-3.963c.832-.514 1.835-.917 3.01-1.21a14.5 14.5 0 0 1 3.513-.439zm-.026 11.463c.424 0 .804-.115 1.14-.346.336-.23.583-.576.742-1.037v-1.01h-1.484c-1.22 0-1.83.407-1.83 1.223 0 .337.128.616.385.838.256.221.605.332 1.047.332zm15.984-9.628c1.06-1.223 2.625-1.835 4.693-1.835v5.32a9.06 9.06 0 0 0-1.326-.107c-2.05 0-3.075 1.046-3.075 3.138v6.463h-5.993V15.186h5.701v1.57zm13.147 8.511l-.954 1.037v3.431h-5.992V10h5.992v9.415l4.162-4.229h7.08l-5.993 6.303 6.47 8.245h-7.238l-3.527-4.468zm18.715 0l-.954 1.037v3.431h-5.992V10h5.992v9.415l4.162-4.229h7.08l-5.992 6.303L137 29.734h-7.238l-3.527-4.468z"/>
        <path fill="#F8B216" d="M12.307 0h15.386c4.28 0 5.831.446 7.396 1.282a8.723 8.723 0 0 1 3.629 3.63C39.554 6.475 40 8.026 40 12.306v15.386c0 4.28-.446 5.831-1.282 7.396a8.723 8.723 0 0 1-3.63 3.629C33.525 39.554 31.974 40 27.694 40H12.307c-4.28 0-5.831-.446-7.396-1.282a8.723 8.723 0 0 1-3.629-3.63C.446 33.525 0 31.974 0 27.694V12.307c0-4.28.446-5.831 1.282-7.396a8.723 8.723 0 0 1 3.63-3.629C6.475.446 8.026 0 12.306 0z"/>
        <path fill="#000" d="M11.531 11.531l7.338 7.338a1.6 1.6 0 0 0 2.262 0l7.338-7.338a1.6 1.6 0 0 1 2.731 1.132V29.6a1.6 1.6 0 0 1-1.6 1.6H10.4a1.6 1.6 0 0 1-1.6-1.6V12.663a1.6 1.6 0 0 1 2.731-1.132z"/>
    </g>
</svg>
