<svg xmlns="http://www.w3.org/2000/svg" width="32" height="32" viewBox="0 0 32 32">
    <g fill="none" fill-rule="evenodd">
        <path fill="#EFEFEF" fill-opacity="0" d="M0 0h32v32H0z"/>
        <path fill="#F3F3F4" fill-opacity=".5" fill-rule="nonzero" d="M26.676 4H5.324C4.593 4 4 4.593 4 5.324v21.352C4 27.408 4.593 28 5.324 28h11.494v-9.294h-3.129v-3.621h3.129V12.41c0-3.099 1.894-4.785 4.659-4.785 1.325 0 2.464.097 2.796.141v3.24h-1.921c-1.5 0-1.792.721-1.792 1.771v2.311h3.584l-.465 3.63H20.56V28h6.115c.733 0 1.325-.592 1.325-1.324V5.324C28 4.593 27.408 4 26.676 4"/>
    </g>
</svg>
