<svg xmlns="http://www.w3.org/2000/svg" xmlns:xlink="http://www.w3.org/1999/xlink" width="112" height="112" viewBox="0 0 112 112">
    <defs>
        <path id="b" d="M42.099 21.535l-3.365 1.36L35 13.14l3.392-1.371c2.864-1.159 5.316-.038 6.48 3.001 1.166 3.05.118 5.596-2.773 6.766zm-2.035-1.218l1.275-.516c1.784-.721 2.364-2.045 1.53-4.222-.83-2.167-2.127-2.72-3.907-2.001l-1.279.517 2.381 6.222zm17.008-7.192c.21 3.423-1.737 5.509-4.435 5.684-2.714.177-4.888-1.657-5.097-5.064-.211-3.423 1.721-5.508 4.435-5.685 2.699-.175 4.887 1.642 5.097 5.065zm-2.182.142c-.136-2.218-1.234-3.352-2.794-3.25-1.566.102-2.511 1.368-2.375 3.586.137 2.217 1.23 3.351 2.795 3.25 1.56-.102 2.51-1.37 2.374-3.586zm4.173 5.145L60.257 8l3.997.485c2.3.278 3.462 1.899 3.225 3.968-.239 2.08-1.758 3.344-4.087 3.061l-1.8-.218-.388 3.375-2.141-.26zm2.73-4.88l1.455.176c1.227.149 1.907-.49 2.025-1.522.12-1.038-.4-1.802-1.636-1.952l-1.445-.175-.398 3.473zm5.905 6.709l3.972-9.657L78 13.336l-.692 1.683-4.344-1.888-.947 2.3 4.018 1.747-.692 1.684-4.018-1.747-.949 2.306 4.362 1.896L74.046 23l-6.348-2.76z"/>
        <filter id="a" width="102.3%" height="113.3%" x="-1.2%" y="-3.3%" filterUnits="objectBoundingBox">
            <feOffset dy="1" in="SourceAlpha" result="shadowOffsetOuter1"/>
            <feColorMatrix in="shadowOffsetOuter1" values="0 0 0 0 0 0 0 0 0 0 0 0 0 0 0 0 0 0 0.5 0"/>
        </filter>
        <path id="d" d="M30.5 0C47.345 0 61 13.655 61 30.5S47.345 61 30.5 61 0 47.345 0 30.5 13.655 0 30.5 0z"/>
        <filter id="c" width="101.6%" height="103.3%" x="-.8%" y="-.8%" filterUnits="objectBoundingBox">
            <feOffset dy="1" in="SourceAlpha" result="shadowOffsetOuter1"/>
            <feColorMatrix in="shadowOffsetOuter1" values="0 0 0 0 0.031372549 0 0 0 0 0.0274509804 0 0 0 0 0.0274509804 0 0 0 0.5 0"/>
        </filter>
    </defs>
    <g fill="none" fill-rule="evenodd">
        <path fill="none" d="M0 0h112v112H0z"/>
        <g fill-rule="nonzero">
            <use fill="#000" filter="url(#a)" xlink:href="#b"/>
            <use fill="#F3F3F4" xlink:href="#b"/>
        </g>
        <g transform="translate(26 26)">
            <use fill="#000" filter="url(#c)" xlink:href="#d"/>
            <use fill="#F8B216" xlink:href="#d"/>
        </g>
        <path fill="#F3F3F4" d="M56.5 38.894c-1.89 0-3.71.298-5.417.85V32.22a.774.774 0 0 1 1.321-.547l3.549 3.549a.774.774 0 0 0 1.094 0l3.549-3.549a.774.774 0 0 1 1.32.547v7.523a17.592 17.592 0 0 0-5.416-.849zm-5.417 34.36c1.707.551 3.527.849 5.417.849 1.89 0 3.71-.298 5.417-.849v7.526a.774.774 0 0 1-1.321.547l-3.549-3.549a.774.774 0 0 0-1.094 0l-3.549 3.549a.774.774 0 0 1-1.32-.547v-7.526zm21.095-24.771a17.681 17.681 0 0 0-7.66-7.661l5.32-5.32a.774.774 0 0 1 1.321.547v5.018c0 .427.347.774.774.774h5.018a.774.774 0 0 1 .548 1.32l-5.321 5.322zM40.823 64.516a17.681 17.681 0 0 0 7.661 7.66L43.162 77.5a.774.774 0 0 1-1.321-.548v-5.018a.774.774 0 0 0-.774-.774h-5.018a.774.774 0 0 1-.548-1.32l5.322-5.323zm32.432-2.6c.551-1.706.85-3.527.85-5.417 0-1.89-.298-3.71-.85-5.416h7.525a.774.774 0 0 1 .547 1.321l-3.549 3.549a.774.774 0 0 0 0 1.094l3.549 3.549a.774.774 0 0 1-.547 1.32h-7.525zm-33.51-10.833a17.592 17.592 0 0 0-.85 5.416c0 1.89.299 3.71.85 5.418H32.22a.774.774 0 0 1-.547-1.321l3.549-3.549a.774.774 0 0 0 0-1.094l-3.549-3.549a.774.774 0 0 1 .547-1.32h7.524zm24.771 21.093a17.681 17.681 0 0 0 7.66-7.66l5.323 5.322a.774.774 0 0 1-.548 1.321h-5.018a.774.774 0 0 0-.774.774v5.018a.774.774 0 0 1-1.32.548l-5.323-5.323zM48.482 40.822a17.681 17.681 0 0 0-7.66 7.66l-5.32-5.32a.774.774 0 0 1 .547-1.321h5.018a.774.774 0 0 0 .774-.774v-5.018a.774.774 0 0 1 1.32-.548l5.321 5.321z"/>
    </g>
</svg>
