<svg xmlns="http://www.w3.org/2000/svg" xmlns:xlink="http://www.w3.org/1999/xlink" width="112" height="112" viewBox="0 0 112 112">
    <defs>
        <path id="b" d="M41.927 11.003l3.729 9.746-1.731.7-6.47-4.465-.07.028 2.347 6.134-2.003.81L34 14.21l1.758-.711 6.436 4.474.084-.033-2.345-6.13 1.994-.807zm14.153 3.114c.208 3.42-1.738 5.502-4.433 5.675-2.71.175-4.88-1.659-5.086-5.063-.208-3.42 1.723-5.501 4.433-5.675 2.695-.174 4.878 1.643 5.086 5.063zm-2.179.14c-.134-2.215-1.23-3.349-2.788-3.249-1.563.1-2.508 1.366-2.373 3.58.134 2.216 1.225 3.35 2.788 3.25 1.558-.1 2.508-1.366 2.373-3.58zm4.163 5.143l1.2-10.4 3.99.487c2.297.28 3.457 1.9 3.218 3.967-.24 2.077-1.757 3.339-4.083 3.055l-1.798-.22-.389 3.372-2.138-.26zm2.73-4.873l1.453.177c1.224.15 1.904-.488 2.023-1.519.12-1.036-.398-1.8-1.633-1.95l-1.442-.176-.4 3.468zm5.914 6.711l3.973-9.643L77 14.35l-.693 1.68-4.336-1.889-.947 2.298 4.011 1.748-.692 1.68-4.011-1.747-.95 2.302 4.355 1.898L73.044 24l-6.336-2.762z"/>
        <filter id="a" width="102.3%" height="113.3%" x="-1.2%" y="-3.3%" filterUnits="objectBoundingBox">
            <feOffset dy="1" in="SourceAlpha" result="shadowOffsetOuter1"/>
            <feColorMatrix in="shadowOffsetOuter1" values="0 0 0 0 0 0 0 0 0 0 0 0 0 0 0 0 0 0 0.5 0"/>
        </filter>
        <path id="d" d="M30.5 0C47.345 0 61 13.655 61 30.5S47.345 61 30.5 61 0 47.345 0 30.5 13.655 0 30.5 0z"/>
        <filter id="c" width="101.6%" height="103.3%" x="-.8%" y="-.8%" filterUnits="objectBoundingBox">
            <feOffset dy="1" in="SourceAlpha" result="shadowOffsetOuter1"/>
            <feColorMatrix in="shadowOffsetOuter1" values="0 0 0 0 0.031372549 0 0 0 0 0.0274509804 0 0 0 0 0.0274509804 0 0 0 0.5 0"/>
        </filter>
    </defs>
    <g fill="none" fill-rule="evenodd">
        <path fill="#FFF" fill-opacity="0" d="M0 0h112v112H0z"/>
        <g fill-rule="nonzero">
            <use fill="#000" filter="url(#a)" xlink:href="#b"/>
            <use fill="#F3F3F4" xlink:href="#b"/>
        </g>
        <g transform="translate(26 26)">
            <use fill="#000" filter="url(#c)" xlink:href="#d"/>
            <use fill="#F15535" xlink:href="#d"/>
        </g>
        <path fill="#F3F3F4" d="M44.434 37.243L56.5 49.31l12.066-12.067a.726.726 0 0 1 1.24.514v4.71c0 .4.325.725.726.725h4.71a.726.726 0 0 1 .513 1.24L63.689 56.498l12.068 12.068a.726.726 0 0 1-.514 1.24h-4.71a.726.726 0 0 0-.725.726v4.71a.726.726 0 0 1-1.24.513L56.5 63.687 44.432 75.755a.726.726 0 0 1-1.24-.513v-4.71a.726.726 0 0 0-.726-.726h-4.71a.726.726 0 0 1-.513-1.24l12.068-12.068-12.066-12.066a.726.726 0 0 1 .513-1.24h4.71a.726.726 0 0 0 .726-.726v-4.71a.726.726 0 0 1 1.24-.513z"/>
    </g>
</svg>
