<svg xmlns="http://www.w3.org/2000/svg" xmlns:xlink="http://www.w3.org/1999/xlink" width="112" height="112" viewBox="0 0 112 112">
    <defs>
        <path id="b" d="M43.347 15.592c1.465 3.042.42 5.69-2.035 6.883-2.469 1.2-5.178.358-6.637-2.67-1.466-3.042-.434-5.683 2.035-6.882 2.455-1.193 5.171-.373 6.637 2.67zm-1.985.965c-.95-1.97-2.395-2.585-3.815-1.896-1.424.692-1.837 2.21-.887 4.18.949 1.97 2.39 2.587 3.814 1.895 1.42-.69 1.837-2.209.888-4.18zm5.508 2.903L45.4 9.237l2.152-.312.648 4.508.134-.02 3.015-5.039L53.93 8l-3.12 5.125 4.636 5.091-2.575.374-3.394-3.798-.872 1.45.418 2.906-2.152.312zm12.465-1.025l-2.32-.23 4.545-9.93 2.79.277 2.518 10.63-2.32-.23-.529-2.42-3.694-.366-.99 2.269zm1.707-3.911l2.6.258-.878-4.015-.08-.008-1.642 3.765zm9.052-4.58l2.245.95.442 5.013.093.04 3.88-3.186L79 13.71l-6.039 4.692-1.41 3.366-1.991-.842 1.411-3.365-.877-7.617z"/>
        <filter id="a" width="102.2%" height="113.3%" x="-1.1%" y="-3.3%" filterUnits="objectBoundingBox">
            <feOffset dy="1" in="SourceAlpha" result="shadowOffsetOuter1"/>
            <feColorMatrix in="shadowOffsetOuter1" values="0 0 0 0 0 0 0 0 0 0 0 0 0 0 0 0 0 0 0.5 0"/>
        </filter>
        <path id="d" d="M30.5 0C47.345 0 61 13.655 61 30.5S47.345 61 30.5 61 0 47.345 0 30.5 13.655 0 30.5 0z"/>
        <filter id="c" width="101.6%" height="103.3%" x="-.8%" y="-.8%" filterUnits="objectBoundingBox">
            <feOffset dy="1" in="SourceAlpha" result="shadowOffsetOuter1"/>
            <feColorMatrix in="shadowOffsetOuter1" values="0 0 0 0 0.031372549 0 0 0 0 0.0274509804 0 0 0 0 0.0274509804 0 0 0 0.5 0"/>
        </filter>
    </defs>
    <g fill="none" fill-rule="evenodd">
        <path fill="#FFF" fill-opacity="0" d="M0 0h112v112H0z"/>
        <g fill-rule="nonzero">
            <use fill="#000" filter="url(#a)" xlink:href="#b"/>
            <use fill="#F3F3F4" xlink:href="#b"/>
        </g>
        <g transform="translate(26 26)">
            <use fill="#000" filter="url(#c)" xlink:href="#d"/>
            <use fill="#38AAD0" xlink:href="#d"/>
        </g>
        <path fill="#F3F3F4" d="M75.072 53.146L52.273 75.945a2.737 2.737 0 0 1-3.87 0l-11.87-11.87-4.125-4.125a.79.79 0 0 1-.232-.554.772.772 0 0 1 .778-.778l5.073.026a.772.772 0 0 0 .778-.778l-.027-5.072a.774.774 0 0 1 .227-.552.782.782 0 0 1 1.106.006l2.363 2.362 7.783 7.784 17.032-17.032 5.525-5.525a.774.774 0 0 1 .552-.226.792.792 0 0 1 .786.786l.027 5.072a.792.792 0 0 0 .786.787l5.072.026a.79.79 0 0 1 .555.232c.307.307.31.803.006 1.106l-5.526 5.526z"/>
    </g>
</svg>
